<?xml version="1.0" standalone="no"?>
<!DOCTYPE svg PUBLIC "-//W3C//DTD SVG 20010904//EN"
 "http://www.w3.org/TR/2001/REC-SVG-20010904/DTD/svg10.dtd">
<svg version="1.0" xmlns="http://www.w3.org/2000/svg"
 width="520.000000pt" height="520.000000pt" viewBox="0 0 520.000000 520.000000"
 preserveAspectRatio="xMidYMid meet">
<metadata>
Created by potrace 1.14, written by Peter Selinger 2001-2017
</metadata>
<g transform="translate(0.000000,520.000000) scale(0.100000,-0.100000)"
fill="#000000" stroke="none">
<path d="M1625 4278 c-3 -13 -42 -95 -85 -183 -43 -88 -120 -245 -170 -350
-51 -104 -104 -215 -120 -245 -15 -30 -31 -66 -35 -80 -4 -14 -19 -43 -33 -65
-14 -21 -37 -69 -52 -105 -15 -36 -97 -207 -182 -380 -85 -173 -170 -346 -188
-385 -18 -38 -70 -147 -116 -242 -46 -95 -84 -174 -84 -177 0 -2 -15 -30 -33
-63 -17 -32 -38 -76 -46 -98 -7 -22 -48 -112 -91 -200 -43 -88 -106 -218 -140
-290 -34 -71 -87 -181 -117 -243 -30 -62 -53 -115 -51 -117 2 -3 204 -5 449
-5 l444 -1 47 88 c25 48 61 124 78 168 18 44 58 134 90 200 67 140 105 220
226 480 48 105 96 204 105 220 10 17 27 55 39 85 28 71 119 261 135 280 7 8
18 33 25 55 12 37 39 95 154 340 55 117 129 265 131 265 1 0 30 -57 65 -127
35 -71 70 -140 77 -155 8 -15 21 -51 29 -80 9 -29 33 -84 54 -123 21 -38 58
-122 83 -186 25 -64 61 -151 81 -193 40 -84 49 -138 12 -66 l-24 44 -88 1 -89
1 -41 115 c-42 118 -117 283 -133 293 -5 3 -15 -9 -22 -27 -7 -17 -32 -72 -55
-122 -23 -49 -45 -101 -49 -115 -4 -14 -34 -79 -65 -145 -32 -66 -74 -158 -95
-205 -20 -47 -49 -110 -65 -140 -15 -30 -31 -66 -35 -80 -4 -14 -34 -79 -66
-146 -32 -66 -61 -133 -64 -147 l-7 -27 605 0 c472 0 607 -3 614 -13 5 -6 22
-43 38 -82 63 -158 180 -422 199 -452 4 -5 895 -7 901 -2 5 6 -28 88 -127 314
-22 50 -62 140 -88 200 -27 61 -67 147 -89 193 -23 45 -41 87 -41 91 0 5 -16
43 -35 84 -19 41 -35 77 -35 80 0 6 -44 100 -146 315 -30 63 -66 141 -80 174
-14 33 -48 108 -76 167 -27 58 -56 122 -63 141 -7 19 -38 89 -69 155 -66 140
-74 156 -155 333 -34 73 -61 135 -61 138 0 2 -22 52 -50 110 -27 58 -50 108
-50 110 0 3 -19 46 -43 97 -48 102 -85 183 -181 397 l-64 145 -390 3 -391 2
-6 -22z"/>
<path d="M2530 4297 c0 -11 59 -148 104 -242 29 -60 68 -148 86 -195 19 -47
41 -96 49 -110 9 -13 28 -51 43 -85 14 -33 44 -100 66 -150 l40 -90 488 -5
c313 -4 500 -10 519 -16 61 -22 111 -54 175 -110 69 -61 97 -98 154 -204 34
-65 62 -161 76 -265 12 -89 10 -272 -3 -330 -4 -16 -10 -41 -13 -55 -11 -53
-68 -196 -88 -223 -54 -71 -122 -154 -141 -170 -11 -9 -51 -33 -90 -51 -80
-39 -171 -56 -299 -56 -66 0 -86 -3 -86 -14 0 -38 162 -435 272 -664 l83 -173
30 7 c55 12 271 91 321 118 80 44 162 100 259 179 83 67 231 234 252 285 8 18
47 96 88 172 77 145 95 197 140 412 80 386 44 806 -100 1171 -70 180 -218 409
-324 502 -25 22 -66 61 -92 86 -26 25 -73 61 -105 79 -114 64 -246 130 -261
130 -8 0 -29 6 -46 14 -18 8 -45 17 -62 20 -183 36 -180 36 -862 36 -370 0
-673 -1 -673 -3z"/>
</g>
</svg>
